<svg width="6" height="6" viewBox="0 0 6 6" fill="none" xmlns="http://www.w3.org/2000/svg">
<path d="M2.78486 0.6306C2.16626 0.641755 1.57715 0.897922 1.14598 1.34336C0.714798 1.78879 0.476528 2.38736 0.483119 3.00845C0.474238 3.32296 0.528271 3.63591 0.642025 3.92908C0.755778 4.22226 0.926941 4.48971 1.14539 4.71532C1.36384 4.94093 1.62513 5.12017 1.91383 5.24263C2.20252 5.36509 2.51274 5.42828 2.82614 5.42828C3.13955 5.42828 3.44977 5.36509 3.73846 5.24263C4.02716 5.12017 4.28845 4.94093 4.5069 4.71532C4.72535 4.48971 4.89651 4.22226 5.01026 3.92908C5.12402 3.63591 5.17805 3.32296 5.16917 3.00845C5.1725 2.69392 5.11299 2.38194 4.99415 2.0909C4.87531 1.79985 4.69955 1.53561 4.47727 1.31393C4.25499 1.09224 3.99069 0.917572 3.7 0.800196C3.40931 0.682821 3.09813 0.625168 2.78486 0.6306ZM2.80434 1.75253C2.96987 1.7496 3.13431 1.7799 3.28793 1.84186C3.44156 1.90381 3.58125 1.99604 3.69875 2.11313C3.81626 2.23021 3.90919 2.36978 3.97206 2.52353C4.03492 2.67729 4.06645 2.84225 4.06477 3.00845C4.069 3.17437 4.04011 3.33944 3.97978 3.49398C3.91946 3.64852 3.82893 3.78944 3.71353 3.9083C3.59813 4.02716 3.46019 4.12145 3.30786 4.18595C3.15552 4.25045 2.99186 4.28371 2.82653 4.28371C2.66119 4.28371 2.49754 4.25045 2.3452 4.18595C2.19286 4.12145 2.05493 4.02716 1.93952 3.9083C1.82412 3.78944 1.73359 3.64852 1.67327 3.49398C1.61295 3.33944 1.58405 3.17437 1.58829 3.00845C1.58497 2.6804 1.71091 2.36422 1.93869 2.12898C2.16646 1.89373 2.47761 1.7585 2.80434 1.75253Z" fill="#333B41" stroke="#333B41" stroke-width="0.7"/>
</svg>
