<svg width="6" height="6" viewBox="0 0 6 6" fill="none" xmlns="http://www.w3.org/2000/svg">
<path d="M3.0679 0.630656C2.44928 0.641769 1.86013 0.897974 1.42891 1.34341C0.997702 1.78885 0.759411 2.38739 0.766002 3.0085C0.766002 3.63278 1.01303 4.23134 1.45273 4.67277C1.89244 5.1142 2.48881 5.36227 3.11065 5.36227C3.73249 5.36227 4.32886 5.1142 4.76857 4.67277C5.20828 4.23134 5.4553 3.63278 5.4553 3.0085C5.45865 2.69371 5.39904 2.38138 5.28001 2.09013C5.16098 1.79888 4.98494 1.53447 4.76232 1.31275C4.53971 1.09102 4.27504 0.916411 3.98399 0.799224C3.69295 0.682036 3.38143 0.624805 3.0679 0.630656ZM3.08738 1.75259C3.25317 1.74923 3.41794 1.77932 3.57193 1.84109C3.72591 1.90286 3.86598 1.99503 3.98381 2.11215C4.10165 2.22928 4.19486 2.36901 4.25791 2.52297C4.32097 2.67694 4.35259 2.84204 4.3509 3.0085C4.35098 3.172 4.31896 3.3339 4.25669 3.48498C4.19442 3.63605 4.10311 3.77337 3.98798 3.88901C3.87285 4.00464 3.73615 4.09625 3.58569 4.15884C3.43524 4.22142 3.27398 4.25372 3.11112 4.25372C2.94826 4.25372 2.78699 4.22142 2.63654 4.15884C2.48608 4.09625 2.34938 4.00464 2.23425 3.88901C2.11912 3.77337 2.02781 3.63605 1.96554 3.48498C1.90327 3.3339 1.87126 3.172 1.87133 3.0085C1.86801 2.68045 1.99396 2.36428 2.22173 2.12903C2.44951 1.89379 2.76065 1.75855 3.08738 1.75259Z" fill="#333B41" stroke="#333B41" stroke-width="0.7"/>
</svg>
