<svg width="9" height="5" viewBox="0 0 9 5" fill="none" xmlns="http://www.w3.org/2000/svg">
<path d="M0.498152 1.82648C0.946966 2.46441 1.54177 2.98477 2.23256 3.34399C2.92335 3.70321 3.68994 3.89086 4.4679 3.89086C5.24587 3.89086 6.01246 3.70321 6.70325 3.34399C7.39404 2.98477 7.98884 2.46441 8.43766 1.82648C8.51976 1.70617 8.5514 1.55817 8.52572 1.41463C8.50004 1.27108 8.41911 1.14349 8.30043 1.05938C8.18175 0.975275 8.03487 0.941552 7.89154 0.965321C7.74821 0.98909 7.61996 1.06842 7.53453 1.18637C7.18778 1.67911 6.72828 2.08128 6.19465 2.35873C5.66102 2.63618 5.06885 2.78087 4.4679 2.78087C3.86696 2.78087 3.27479 2.63618 2.74116 2.35873C2.20753 2.08128 1.74803 1.67911 1.40128 1.18637C1.31585 1.06841 1.1876 0.989094 1.04427 0.965321C0.900937 0.941549 0.754046 0.975273 0.635364 1.05938C0.516682 1.14349 0.435751 1.27108 0.410073 1.41463C0.384395 1.55817 0.416036 1.70617 0.498152 1.82648Z" fill="#333B41" stroke="#333B41" stroke-width="0.7"/>
</svg>
