<svg width="37" height="68" viewBox="0 0 37 68" fill="none" xmlns="http://www.w3.org/2000/svg">
<path d="M29.9234 0.543963C29.8884 0.421971 29.8236 0.315762 29.7378 0.239425C29.6519 0.163088 29.5489 0.12021 29.4426 0.116477C29.3362 0.112744 29.2313 0.148339 29.142 0.218528C29.0526 0.288717 28.9829 0.390192 28.9422 0.509524C28.2375 2.58946 27.447 4.62501 26.5737 6.60844C19.2705 23.22 10.413 38.7538 0.176997 52.9017C0.0898019 53.0205 0.0426683 53.1747 0.0450048 53.3338C0.0473412 53.4928 0.098969 53.645 0.189597 53.7599L1.95926 56.0257C1.43922 56.773 1.00295 57.6005 0.661829 58.4867C0.295472 59.466 0.139 60.5417 0.206957 61.614C0.274915 62.6863 0.565092 63.7204 1.05053 64.6201C1.48266 65.4759 2.08558 66.1857 2.80354 66.6838C3.5215 67.1819 4.33134 67.4523 5.15819 67.47H32.0245C32.6879 67.4696 33.3445 67.3083 33.9558 66.9955C34.5671 66.6828 35.1207 66.2249 35.5842 65.6487C36.0476 65.0725 36.4115 64.3898 36.6544 63.6405C36.8974 62.8913 37.0145 62.0906 36.9989 61.2856C36.7331 48.3298 35.4992 19.6179 29.9234 0.543963Z" fill="black"/>
</svg>
