<svg width="25" height="26" viewBox="0 0 25 26" fill="none" xmlns="http://www.w3.org/2000/svg">
<path d="M22.1638 1.16081C22.1472 1.0819 22.1086 1.01191 22.0542 0.962159C21.9997 0.912412 21.9327 0.88583 21.8638 0.886741C20.3944 0.905133 12.6157 1.00106 9.31768 1.01657C9.26695 1.01637 9.21702 1.03155 9.17269 1.06065C9.12835 1.08976 9.09109 1.13182 9.06448 1.18281C6.94449 5.16036 3.22587 11.3496 0.769906 15.3787C0.729477 15.445 0.709521 15.5257 0.713356 15.6074C0.71719 15.689 0.744584 15.7666 0.790981 15.8273L4.2228 20.3677L4.18615 20.4327C4.17393 20.4579 4.15866 20.4831 4.14644 20.5084C3.8787 21.0262 3.73265 21.6189 3.72334 22.2254C3.71403 22.832 3.84178 23.4305 4.09346 23.9594C4.34513 24.4883 4.71163 24.9285 5.15524 25.2347C5.59885 25.5408 6.10354 25.7018 6.61737 25.7012H21.2108C21.5968 25.701 21.9789 25.6096 22.3345 25.4324C22.6901 25.2553 23.0122 24.996 23.2817 24.6697C23.5512 24.3434 23.7627 23.9569 23.9038 23.5327C24.0449 23.1085 24.1127 22.6552 24.1032 22.1997C24.0544 19.8521 23.9261 16.1666 23.6084 12.1674C23.3454 8.46319 22.8627 4.78529 22.1638 1.16081Z" fill="black"/>
</svg>
