<svg width="42" height="45" viewBox="0 0 42 45" fill="none" xmlns="http://www.w3.org/2000/svg">
<path d="M38.3306 0.951388C38.3013 0.811461 38.2328 0.687331 38.1363 0.599113C38.0397 0.510894 37.9208 0.463756 37.7987 0.465372C35.1929 0.497986 21.3987 0.6681 15.5502 0.695598C15.4602 0.695239 15.3717 0.722158 15.2931 0.773777C15.2144 0.825396 15.1484 0.899985 15.1012 0.9904C11.3417 8.04394 4.74737 19.0194 0.392124 26.1644C0.320429 26.2821 0.285041 26.4252 0.291841 26.57C0.29864 26.7147 0.347218 26.8523 0.429496 26.9599L6.51525 35.0117L6.45026 35.1268C6.4286 35.1716 6.40151 35.2164 6.37985 35.2611C5.90505 36.1793 5.64606 37.2304 5.62955 38.306C5.61304 39.3816 5.83959 40.443 6.28589 41.381C6.7322 42.3189 7.38212 43.0995 8.16879 43.6424C8.95545 44.1853 9.85044 44.4708 10.7616 44.4697H36.6407C37.3252 44.4693 38.0027 44.3072 38.6334 43.9931C39.264 43.679 39.8351 43.2191 40.313 42.6405C40.7909 42.062 41.166 41.3764 41.4162 40.6242C41.6664 39.8719 41.7867 39.0682 41.7699 38.2603C41.6833 34.0973 41.4558 27.5617 40.8925 20.4698C40.426 13.901 39.57 7.37881 38.3306 0.951388Z" fill="black"/>
</svg>
