<svg width="14" height="17" viewBox="0 0 14 17" fill="none" xmlns="http://www.w3.org/2000/svg">
<path d="M6.89552 0.600948C1.47646 -1.89421 -1.67544 5.11331 1.77331 9.22857C3.65922 11.4777 5.45199 16.6894 9.54976 16.2572C16.0602 15.5719 15.4607 4.54049 6.89552 0.600948ZM4.44065 7.3811C4.11928 7.3811 3.80513 7.26603 3.53793 7.05043C3.27073 6.83484 3.06246 6.52842 2.93948 6.16991C2.8165 5.81139 2.78433 5.41688 2.84702 5.03628C2.90972 4.65568 3.06447 4.30608 3.29171 4.03169C3.51895 3.75729 3.80847 3.57042 4.12365 3.49472C4.43884 3.41901 4.76555 3.45787 5.06245 3.60637C5.35935 3.75488 5.61312 4.00636 5.79166 4.32901C5.9702 4.65167 6.06549 5.03101 6.06549 5.41906C6.06541 5.9394 5.8942 6.43839 5.5895 6.80633C5.2848 7.17426 4.87156 7.38101 4.44065 7.3811V7.3811Z" fill="black"/>
</svg>
