<svg width="22" height="39" viewBox="0 0 22 39" fill="none" xmlns="http://www.w3.org/2000/svg">
<path d="M17.1144 0.961916C17.0946 0.893124 17.0581 0.833232 17.0097 0.790185C16.9613 0.747137 16.9032 0.722958 16.8432 0.720853C16.7832 0.718748 16.7241 0.73882 16.6737 0.778401C16.6233 0.817981 16.584 0.875204 16.5611 0.942496C16.1637 2.11539 15.7179 3.26326 15.2254 4.38173C11.1071 13.7492 6.11231 22.5088 0.340103 30.4869C0.290933 30.5539 0.264354 30.6409 0.265672 30.7306C0.266989 30.8203 0.296103 30.9061 0.347209 30.9709L1.34514 32.2486C1.05188 32.67 0.805866 33.1366 0.613505 33.6364C0.406912 34.1886 0.318676 34.7952 0.356998 35.3999C0.39532 36.0046 0.558954 36.5877 0.832696 37.095C1.07638 37.5776 1.41637 37.9779 1.82123 38.2588C2.2261 38.5397 2.68278 38.6922 3.14905 38.7021H18.2992C18.6733 38.7019 19.0436 38.6109 19.3883 38.4346C19.733 38.2582 20.0452 38 20.3065 37.6751C20.5679 37.3502 20.7731 36.9652 20.9101 36.5427C21.0471 36.1201 21.1131 35.6686 21.1043 35.2147C20.9544 27.9088 20.2586 11.7179 17.1144 0.961916Z" fill="black"/>
</svg>
