<svg width="25" height="30" viewBox="0 0 25 30" fill="none" xmlns="http://www.w3.org/2000/svg">
<path d="M12.0017 1.23942C2.39187 -3.18533 -3.19751 9.24136 2.91829 16.5391C6.26263 20.5276 9.44182 29.7697 16.7085 29.0032C28.2537 27.7879 27.1906 8.22554 12.0017 1.23942ZM7.64837 13.2629C7.07848 13.2629 6.52139 13.0588 6.04755 12.6765C5.57371 12.2942 5.20439 11.7508 4.9863 11.115C4.76822 10.4793 4.71116 9.77968 4.82234 9.10475C4.93352 8.42982 5.20794 7.80987 5.61091 7.32327C6.01388 6.83667 6.5273 6.50529 7.08624 6.37104C7.64517 6.23679 8.22452 6.3057 8.75103 6.56905C9.27754 6.83239 9.72755 7.27835 10.0442 7.85052C10.3608 8.4227 10.5298 9.0954 10.5298 9.78355C10.5296 10.7063 10.226 11.5912 9.68567 12.2436C9.14533 12.8961 8.41252 13.2627 7.64837 13.2629Z" fill="black"/>
</svg>
