<?xml version="1.0" encoding="utf-8"?>
<!-- Generator: Adobe Illustrator 16.0.0, SVG Export Plug-In . SVG Version: 6.00 Build 0)  -->
<!DOCTYPE svg PUBLIC "-//W3C//DTD SVG 1.1//EN" "http://www.w3.org/Graphics/SVG/1.1/DTD/svg11.dtd" [
	<!ENTITY ns_flows "http://ns.adobe.com/Flows/1.0/">
	<!ENTITY ns_extend "http://ns.adobe.com/Extensibility/1.0/">
	<!ENTITY ns_ai "http://ns.adobe.com/AdobeIllustrator/10.0/">
	<!ENTITY ns_graphs "http://ns.adobe.com/Graphs/1.0/">
]>
<svg version="1.1" id="Layer_2" xmlns:x="&ns_extend;" xmlns:i="&ns_ai;" xmlns:graph="&ns_graphs;"
	 xmlns="http://www.w3.org/2000/svg" xmlns:xlink="http://www.w3.org/1999/xlink" xmlns:a="http://ns.adobe.com/AdobeSVGViewerExtensions/3.0/"
	 x="0px" y="0px" width="100px" height="100px" viewBox="0 0 864 864" enable-background="new 0 0 864 864" xml:space="preserve">
<path fill="#999" d="M794.071,395.095c-3.843-17.572-7.765-35.126-11.535-52.713c-7.379-34.419-14.219-68.966-24.755-102.624
	c-7.349-23.474-15.528-46.602-28.674-67.601c-7.309-11.674-15.817-22.304-27.945-29.4c-6.135-3.589-12.648-6.139-19.473-6.183
	c-3.65,9.238-206.503,1.666-205.734-0.296c-29.502,0-58.617,0-87.733,0c1.671,0.623-5.199,2.143-15.706,4.498
	c-9.093-1.412-18.295-1.735-27.717,0.115c-1.444,0.284-3.887-0.871-4.785-2.129c-2.807-3.929-6.688-5.28-10.871-5.98
	c-2.417,5.034-44.268-9.079-40.511-11.541c-0.166-0.406-0.331-0.812-0.496-1.217c-17.557-5.363-35.113-10.726-52.669-16.088
	c-0.342,0.337-0.684,0.675-1.025,1.013c2.064,4.495-40.381-9.528-39.562-13.771c-3.15-0.615-6.365-2.334-8.518-1.454
	c-5.924,2.42-9.772,0.245-13.457-3.933c-1.005-1.139-2.38-1.966-3.634-2.869c-15.216-10.956-32.752-16.451-50.55-21.232
	c-2.051-0.551-4.484,0.319-6.739,0.53c0.334,1.159,0.609,1.443,0.923,1.499c24.763,4.362,44.798,16.551,60.687,36
	c3.325,4.07,4.362,7.536,2.364,12.513c-2.514,6.262-2.91,6.796-9.268,4.592c0.593,1.206,0.933,2.309,1.592,3.169
	c2.986,3.898,3.056,7.948,1.104,12.314c-2.562,5.732-4.852,11.588-7.451,17.303c-12.203,26.842-24.939,53.399-42.298,77.425
	c-2.133,2.952-4.335,5.854-6.239,8.419c74.041-3.832,140.562,16.172,199.874,60.06c0.359,3.955,11.413,11.304,14.396,14.261
	c7.912,7.842,14.4,16.859,18.945,27.069c5.277,11.855,7.376,24.182,2.903,36.776c-5.47,15.403-17.435,24.408-31.699,30.866
	c-15.091,6.833-31.199,9.316-48.027,10.747c0.023,0.066,0.042,0.123,0.064,0.188c-4.784-0.15-9.75,0.004-11.008-0.04
	c-9.778-0.344-19.632-0.311-29.298-1.608c-13.605-1.826-27.065-4.725-40.597-7.106c-0.901-0.158-2.527-0.116-2.736,0.334
	c-1.646,3.553-4.051,7.169-4.261,10.878c-0.338,5.979,0.782,12.046,1.361,18.067c0.814,8.471,1.624,16.919-0.423,25.353
	c-1.821,7.497-6.334,11.373-14.011,11.072c-4.064-0.16-8.208-0.838-12.11-1.983c-6.994-2.054-13.833-4.637-21.294-7.189
	c-1.551,6.837-3.03,13.198-4.433,19.575c-1.409,6.408,0.507,11.967,4.659,16.816c6.593,7.7,15.119,11.397,25.158,11.479
	c13.92,0.111,27.843,0.105,41.763-0.064c1.815-0.021,4.036-0.863,5.359-2.09c21.363-19.802,42.593-39.746,63.924-59.583
	c0.832-0.774,5.165-1.792,9.292-2.877c11.184,30.377,22.374,60.752,33.443,91.171c3.201,8.796,9.569,13.154,18.291,14.453
	c16.907,2.519,32.272-2.688,47.084-10.105c0.826-0.414,1.598-2.007,1.526-2.986c-1.237-16.699-2.58-33.391-3.969-50.078
	c-0.717-8.604,1.517-16.378,6.779-23.119c7.829-10.028,18.333-14.411,30.999-14.399c32.327,0.033,87.033,2.795,119.359,2.796
	c9.629,20.222-3.919,49.66,9.024,52.41c0.874,0.186,2.857,1.089,4.859,2.43c13.351,8.944,39.508,7.333,58.83,1.735
	c29.423-4.825,22.697-49.839,24.874-49.839c-1.803-2.857,3.356,0.912,1.993-1.231c-3.452-5.433,25.119,36.923,46.407,70.068
	c0.924,1.438-0.167,2.468,6.096,2.869c9.247,0.593,20.178,0.416,29.398-0.359c12.684-1.067,25.356-16.172,25.097-28.682
	c-0.231-11.133-1.221-22.591-2.15-34.06c-3.267,1.641-10.643-81.625-10.762-82.967c-1.362-15.394-2.742-30.786-4.147-46.176
	c-1.687-18.467-3.423-36.93-5.096-55.398c-1.66-18.341-3.425-36.674-4.808-55.037c-0.442-5.871-2.394-10.876-5.468-15.753
	c-4.185-6.638-8.004-13.506-12.038-20.24c-1.438-2.399-2.589-4.916,0.521-6.611c2.751-1.499,4.184,0.811,5.392,2.871
	c6.639,11.324,13.203,22.691,19.901,33.979c28.976,48.826,49.656,100.924,61.842,156.389c1.283,5.841,2.76,11.64,4.144,17.449
	c2.199-0.458,3.888-0.81,5.618-1.17C794.168,396.11,794.18,395.589,794.071,395.095z"/>
<g>
	<path fill-rule="evenodd" clip-rule="evenodd" fill="#DFAF8B" d="M199.724,102.314c2.749,0.635,4.322,1.453,5.698,1.2
		c1.673-0.308,4.299-1.317,4.492-2.388c0.273-1.517-0.833-4.105-2.165-4.945c-5.238-3.305-5.363-3.12-2.937-8.975
		c0.53-1.278,1.124-2.53,1.719-3.863c2.379,0.638,4.437,1.351,6.555,1.713c2.231,0.382,4.615-0.308,4.646-2.757
		c0.02-1.618-1.48-3.513-2.777-4.805c-1.003-1-2.747-1.255-4.77-2.094c1.854-3.385,3.6-6.572,5.363-9.791
		c3.753,0.371,7.871,4.53,10.417-0.739c1.924-3.982-2.46-4.867-5.293-7.159c3.429-3.099,6.419-6.268,9.881-8.788
		c3.022-2.2,5.108-0.898,4.523,2.835c-0.812,5.182-2.44,10.23-3.425,15.391c-1.774,9.305-3.753,18.601-4.849,27.994
		c-0.919,7.875,1.365,15.481,4.782,23.053c-11.805,1.193-21.738-2.086-30.186-9.592
		C200.219,107.558,200.384,104.996,199.724,102.314z"/>
	<path fill-rule="evenodd" clip-rule="evenodd" fill="#DFAF8B" d="M323.813,119.106c-0.245,1.862-0.338,3.274-0.626,4.645
		c-1.232,5.875-1.252,5.859-7.148,5.505c-2.126-0.127-4.366-0.119-4.923,2.527c-0.551,2.612,0.489,4.499,3.246,5.254
		c1.09,0.299,2.119,0.822,3.344,1.311c-0.304,3.236-1.677,4.781-5.065,4.977c-10.575,0.611-20.124-1.759-28.385-8.777
		c0.218-0.435,0.293-0.901,0.557-1.065c13.578-8.483,20.235-21.811,25.417-36.19c2.264-6.283,4.472-12.594,7.016-18.764
		c0.644-1.563,2.478-2.636,3.764-3.934c1.008,1.42,2.474,2.708,2.931,4.287c1.014,3.503,1.523,7.152,2.336,11.236
		c-1.938-0.094-3.243-0.552-4.075-0.113c-1.542,0.813-3.699,1.992-3.936,3.315c-0.237,1.33,1.461,4.272,2.472,4.348
		c5.772,0.431,6.033,3.688,5.035,8.106c-0.324,1.434-0.182,2.973-0.268,4.765c-1.714-0.275-2.979-0.353-4.169-0.694
		c-2.831-0.81-5.454-0.488-6.273,2.583c-0.899,3.372,1.489,4.807,4.472,5.449C320.886,118.168,322.202,118.637,323.813,119.106z"/>
</g>
<g>
	<path fill-rule="evenodd" clip-rule="evenodd" fill="#FAD5E5" d="M627.502,458.84c0,3.866,0.386,7.607-0.096,11.233
		c-0.626,4.717-4.595,7.758-9.156,7.773c-4.687,0.016-8.039-2.803-9.119-7.759c-0.608-2.794-0.797-5.97-4.911-5.506
		c-5.833,0.658-9.425,3.987-9.179,8.285c0.133,2.314,0.31,4.637,0.258,6.95c-0.118,5.161-4.039,8.998-9.114,9.072
		c-5.065,0.074-9.126-3.662-9.495-8.738c-0.019-0.257-0.032-0.515-0.04-0.771c-0.2-7.227-0.902-7.887-8.096-7.616
		c-4.072,0.154-5.096,1.211-5.23,5.396c-0.212,6.625-4.405,11.005-10.167,10.621c-5.529-0.369-9.201-5.146-8.813-11.47
		c0.016-0.257,0.033-0.515,0.059-0.771c0.716-7.5-1.084-9.939-8.69-11.48c-2.806-0.568-4.417,0.724-4.736,3.607
		c-0.197,1.773-0.2,3.629-0.753,5.294c-1.329,4.012-5.216,6.535-9.199,6.289c-4.104-0.254-7.463-3.077-8.512-7.22
		c-0.252-0.992-0.527-2.036-0.472-3.039c0.186-3.319,0.516-6.631,0.809-10.151C551.123,458.84,589.192,458.84,627.502,458.84z"/>
	<g>
		<path fill-rule="evenodd" clip-rule="evenodd" fill="#FAD5E5" d="M257.99,408.36c-59.344-1.956-112.812-17.904-160.939-50.527
			c-15.232-10.325-28.769-22.632-38.71-38.393c-5.418-8.591-9.093-17.724-9.346-28.16c-0.308-12.736,5.441-22.291,14.899-29.904
			c12.501-10.063,27.453-14.396,42.92-16.952c18.785-3.104,37.702-2.992,56.581-0.806c27.724,3.21,54.52,10.122,80.396,20.61
			c25.346,10.273,49.032,23.338,69.553,41.623c11.927,10.626,22.45,22.437,28.016,37.766c7.577,20.867,1.017,38.564-18.145,49.751
			c-12.877,7.518-26.902,11.42-41.611,13C273.3,407.261,264.958,407.784,257.99,408.36z"/>
		<path fill-rule="evenodd" clip-rule="evenodd" fill="#FAD5E5" d="M108.72,70.161c19.854,3.202,36.633,11.055,50.392,24.969
			c3.021,3.055,2.521,5.739-1.65,6.885c-2.886,0.792-4.018,2.413-5.185,4.954c-1.069,2.329-3.241,4.223-5.186,6.03
			c-0.494,0.459-2.339,0.25-2.945-0.315c-12.54-11.675-24.651-23.744-33.644-38.517C109.846,73.088,109.458,71.844,108.72,70.161z"
			/>
		<path fill-rule="evenodd" clip-rule="evenodd" fill="#FAD5E5" d="M412.603,163.085c-6.196,2.32-12.269,5.076-18.616,6.854
			c-8.515,2.385-17.271,3.896-25.86,6.032c-3.125,0.777-3.882-0.513-4.205-3.163c-0.576-4.731-1.307-9.443-2.001-14.159
			c-0.605-4.121,0.081-5.161,4.278-5.442c11.658-0.781,23.159,0.155,34.319,3.812c4.016,1.316,7.914,2.991,11.866,4.502
			C412.458,162.042,412.53,162.563,412.603,163.085z"/>
	</g>
</g>
<g>
	<path fill-rule="evenodd" clip-rule="evenodd" d="M236.307,39.877c6.394,4.427,7.801,8.627,5.739,17.362
		c-2.244,9.505-4.68,18.969-6.75,28.512c-2.186,10.081-2.035,10.096,7.529,13.03c15.606,4.786,31.246,9.468,46.775,14.493
		c3.519,1.138,5.248,0.249,6.484-2.845c3.81-9.54,7.582-19.096,11.476-28.602c1.407-3.435,2.728-7.005,4.767-10.061
		c4.923-7.378,13.442-7.143,17.128,0.921c2.443,5.345,3.999,11.573,4.063,17.427c0.127,11.648-1.048,23.312-1.751,36.156
		c3.414,0.697,8.072,2.472,12.733,2.479c109.727,0.155,219.453,0.113,329.181,0.151c3.578,0.001,7.168,0.359,10.731,0.738
		c10.419,1.11,19.442,5.59,27.535,11.981c14.832,11.713,24.467,27.373,32.621,44.025c12.961,26.466,21.756,54.459,28.525,83.007
		c8.067,34.017,15.075,68.286,22.576,102.438c1.572,7.156,3.251,14.29,4.951,21.417c1.076,4.512,2.833,8.532,5.992,12.233
		c6.609,7.745,8.864,17.181,7.393,27.125c-1.39,9.387-3.632,18.65-5.612,27.944c-0.369,1.734-0.942,3.633-2.037,4.942
		c-0.924,1.106-2.883,2.199-4.116,1.953c-1.162-0.232-2.852-2.258-2.801-3.429c0.423-9.771-4.626-17.181-10.018-24.495
		c-1.682-2.282-3.394-4.542-5.105-6.802c-5.844-7.721-5.987-16.063-3.012-24.905c0.684-2.032,0.942-4.512,0.48-6.581
		c-7.357-32.886-15.489-65.569-27.847-97.012c-8.707-22.158-19.265-43.442-31.747-64.026c0.255,3.455,0.456,6.915,0.773,10.365
		c1.961,21.291,3.981,42.575,5.915,63.868c1.935,21.293,3.744,42.599,5.697,63.89c1.41,15.374,3.027,30.728,4.437,46.102
		c1.409,15.366,2.671,30.745,4.005,46.117c0.858,9.881,1.588,19.775,2.629,29.638c1.859,17.588-12.118,35.486-29.822,37.033
		c-10.498,0.918-21.108,0.796-31.66,0.638c-1.878-0.028-4.314-2.139-5.486-3.942c-13.191-20.303-26.185-40.736-39.238-61.128
		c-0.743-1.161-1.555-2.277-2.769-4.045c-2.337,8.985-5.043,17.146-6.504,25.523c-2.173,12.457-9.97,19.149-21.287,22.339
		c-21.073,5.939-42.022,5.301-62.451-2.842c-6.17-2.46-12.033-6.147-13.255-13.423c-0.617-3.675,0.361-7.62,0.639-11.442
		c0.163-2.239,0.365-4.477,0.613-7.483c-6.844,5.965-13.748,7.708-21.141,3.404c-10.082-5.869-8.786-15.627-7.91-25.631
		c-1.617,0-3.111,0-4.606,0c-27.593,0-55.197,0.48-82.775-0.156c-20.935-0.484-36.008,13.423-33.004,37.614
		c1.841,14.815,2.444,29.781,3.746,44.668c0.301,3.446-0.932,5.383-3.973,7.013c-10.658,5.713-21.905,9.521-33.831,11.408
		c-0.835,0.132-1.626,0.545-2.438,0.827c-4.9,0-9.8,0-14.7,0c-0.966-0.277-1.919-0.607-2.898-0.823
		c-11.036-2.436-19.012-8.13-22.985-19.332c-7.498-21.145-15.539-42.096-23.34-63.132c-2.66-7.173-5.275-14.361-8.031-21.871
		c-1.272,1.117-2.154,1.85-2.989,2.632c-20.601,19.3-41.151,38.653-61.877,57.817c-1.77,1.637-4.688,2.806-7.098,2.851
		c-14.304,0.262-28.615,0.058-42.923,0.152c-10.211,0.067-19.312-2.965-27.027-9.611c-8.848-7.624-13.017-17.07-10.222-28.899
		c4.461-18.883,8.927-37.765,13.366-56.652c2.399-10.204,4.747-20.42,7.098-30.546c-34.293-16.121-42.901-20.822-62.276-36.056
		c-14.487-11.391-27.325-24.447-35.191-41.455c-2.66-5.751-4.082-12.073-6.068-18.135c0-4.126,0-8.252,0-12.379
		c0.253-0.562,0.631-1.101,0.741-1.69c1.633-8.76,5.915-16.064,12.065-22.406c10.013-10.322,22.455-16.811,36.192-19.411
		c10.627-2.011,17.023-7.85,22.354-16.16c0.139-0.216,0.301-0.417,0.453-0.626c18.867-25.993,32.325-54.913,45.33-84.063
		c0.439-0.985-0.058-3.01-0.857-3.819c-3.892-3.937-8.044-7.615-12.089-11.401c-15.547-14.556-30.252-29.902-42.333-47.504
		c-2.589-3.771-3.895-8.553-5.186-13.043c-0.893-3.106,1.16-4.948,4.27-5.714c2.223-0.548,4.459-1.261,6.499-2.281
		c4.145-2.074,8.401-2.454,12.744-1.152c7.872,2.361,15.797,4.61,23.507,7.433c11.515,4.217,22.56,9.503,31.955,17.568
		c2.74,2.352,5.042,4.063,8.808,2.343c1.213-0.554,3.033-0.062,4.498,0.281c2.337,0.547,4.61,1.371,6.666,2.002
		c3.683-7.124,6.854-14.175,10.832-20.738c5.874-9.693,12.12-19.233,23.111-24.109C232.696,39.877,234.501,39.877,236.307,39.877z
		 M269.788,415.23c0.493,1.431,0.848,2.522,1.244,3.598c14.552,39.592,29.183,79.156,43.607,118.794
		c3.201,8.796,9.569,13.154,18.291,14.453c16.907,2.519,32.272-2.688,47.084-10.105c0.826-0.414,1.598-2.007,1.526-2.986
		c-1.237-16.699-2.58-33.391-3.969-50.078c-0.717-8.604,1.517-16.378,6.779-23.119c7.829-10.028,18.333-14.411,30.999-14.399
		c68.599,0.07,137.197,0.033,205.796,0.033c1.472,0,2.943,0,5.12,0c-1.803-2.857-3.153-5.009-4.517-7.152
		c-3.452-5.433-7.078-10.767-10.232-16.366c-0.683-1.212-0.272-3.906,0.685-4.981c1.662-1.865,3.523-0.429,4.828,1.173
		c0.81,0.994,1.461,2.118,2.154,3.203c21.217,33.192,42.411,66.396,63.699,99.542c0.924,1.438,2.688,3.308,4.076,3.32
		c9.266,0.084,18.573,0.164,27.794-0.611c12.684-1.067,24.146-13.291,23.886-25.801c-0.231-11.133-1.662-22.241-2.592-33.71
		c-3.267,1.641-6.022,3.277-8.968,4.434c-3.094,1.214-6.325,2.165-9.573,2.888c-13.599,3.028-22.254-2.885-23.975-16.658
		c-0.685-5.472-0.583-11.05-0.706-16.583c-0.201-9.003-3.823-15.884-12.112-19.914c-2.304-1.12-4.938-1.706-6.992-3.147
		c-1.416-0.994-3.296-3.459-2.915-4.549c3.734-10.687,7.625-21.399,15.697-29.79c7.944-8.259,17.119-10.049,27.395-5.01
		c5.005,2.455,9.579,5.79,14.494,8.814c0-1.259,0.103-2.62-0.017-3.963c-1.362-15.394-2.742-30.786-4.147-46.176
		c-1.687-18.467-3.423-36.93-5.096-55.398c-1.66-18.341-3.425-36.674-4.808-55.037c-0.442-5.871-2.394-10.876-5.468-15.753
		c-4.185-6.638-8.004-13.506-12.038-20.24c-1.438-2.399-2.589-4.916,0.521-6.611c2.751-1.499,4.184,0.811,5.392,2.871
		c6.639,11.324,13.203,22.691,19.901,33.979c28.976,48.826,49.656,100.924,61.842,156.389c1.283,5.841,2.76,11.64,4.144,17.449
		c2.199-0.458,3.888-0.81,5.618-1.17c-0.066-0.75-0.055-1.27-0.163-1.765c-3.843-17.572-7.765-35.126-11.535-52.713
		c-7.379-34.419-14.219-68.966-24.755-102.624c-7.349-23.474-15.528-46.602-28.674-67.601c-7.309-11.674-15.817-22.304-27.945-29.4
		c-6.135-3.589-12.648-6.139-19.473-6.183c-3.65,9.238-7.06,18.094-10.651,26.875c-2.977,7.278-3.02,14.516-0.267,21.816
		c1.496,3.967,3.042,7.915,4.588,11.863c4.009,10.24,4.9,20.247-0.549,30.493c-13.886,26.112-29.839,50.839-48.519,73.769
		c-1.972,2.42-4.603,4.747-7.425,5.935c-5.299,2.231-10.879,3.951-16.488,5.252c-13.282,3.08-24.975,0.073-34.593-9.954
		c-3.302-3.442-6.74-6.754-10.122-10.118c-4.959-4.93-10.748-8.577-17.68-9.633c-6.207-0.946-12.555-0.918-18.801-1.658
		c-9.288-1.1-18.769-1.623-27.76-3.958c-15.812-4.108-21.66-18.302-13.749-32.574c3.783-6.824,8.854-12.931,13.32-19.377
		c4.682-6.76,9.856-13.246,13.867-20.384c4.751-8.453,3.479-13.666-3.454-20.312c-2.509-2.405-5.253-4.562-7.809-6.921
		c-5.578-5.15-11.455-10.036-16.553-15.629c-5.156-5.658-7.56-12.545-5.193-20.354c0.536-1.772,1.333-3.465,2.102-5.427
		c-29.502,0-58.617,0-87.733,0c5.931,2.211,11.907,4.083,17.931,5.789c6.427,1.821,11.941,4.687,14.867,11.198
		c0.663,1.474,1.949,2.715,3.11,3.906c2.307,2.366,2.47,4.793,0.197,7.13c-2.166,2.229-4.558,4.24-7.071,6.551
		c9.997,3.561,18.404,9.252,26.285,16.035c7.048,6.065,8.247,13.238,6.026,21.596c-2.886,10.864-8.477,20.384-14.98,29.391
		c-7.351,10.181-15.525,19.598-26.139,26.592c-7.001,4.614-14.027,6.408-21.252,0.393c-2.169-1.806-4.569-3.334-6.747-5.131
		c-18.141-14.965-32.654-47.858-19.679-74.58c-8.229,1.337-16.147,2.938-24.145,3.784c-3.689,0.391-4.667,2.019-5.1,5.177
		c-2.346,17.07-4.907,34.111-7.189,51.19c-2.414,18.069-2.76,36.21-1.292,54.386c0.319,3.95,1.634,7.125,4.623,10.087
		c7.912,7.842,14.4,16.859,18.945,27.069c5.277,11.855,7.376,24.182,2.903,36.776c-5.47,15.403-17.435,24.408-31.699,30.866
		C302.724,411.316,286.616,413.799,269.788,415.23z M257.99,408.36c6.968-0.577,15.31-1.1,23.613-1.992
		c14.709-1.58,28.734-5.482,41.611-13c19.162-11.187,25.722-28.885,18.145-49.751c-5.566-15.329-16.089-27.14-28.016-37.766
		c-20.521-18.285-44.208-31.35-69.553-41.623c-25.876-10.488-52.671-17.4-80.396-20.61c-18.879-2.186-37.796-2.298-56.581,0.806
		c-15.467,2.556-30.419,6.889-42.92,16.952c-9.458,7.613-15.207,17.168-14.899,29.904c0.252,10.437,3.927,19.569,9.346,28.16
		c9.941,15.761,23.478,28.068,38.71,38.393C145.178,390.456,198.646,406.405,257.99,408.36z M339.167,167.787
		c-6.146-0.628-7.002-1.927-5.478-7.356c0.451-1.607,0.635-3.375,1.451-4.771c0.901-1.544,2.137-3.456,3.655-3.99
		c18.235-6.416,36.847-8.229,55.787-3.557c6.023,1.485,11.92,3.488,17.874,5.254c-1.009-1.269-2.167-2.366-3.543-2.847
		c-5.21-1.821-10.434-3.65-15.755-5.099c-15.836-4.312-31.758-7.792-48.357-4.531c-1.444,0.284-3.887-0.871-4.785-2.129
		c-2.807-3.929-6.688-5.28-10.871-5.98c-2.417,5.034-4.554,9.98-7.18,14.652c-0.798,1.419-2.843,2.715-4.495,2.986
		c-15.92,2.608-29.748-1.833-41.499-12.853c-4.61-4.323-4.229-5.99,1.356-9.005c3.938-2.126,7.55-4.859,11.307-7.321
		c-0.166-0.406-0.331-0.812-0.496-1.217c-17.557-5.363-35.113-10.726-52.669-16.088c-0.342,0.337-0.684,0.675-1.025,1.013
		c2.064,4.495,4.031,9.037,6.222,13.469c1.876,3.797,1.053,5.788-3.149,6.59c-15.021,2.87-28.473-0.37-40.641-9.806
		c-4.342-3.368-5.375-7.145-4.312-12.101c0.821-3.825,1.499-7.681,2.317-11.923c-3.15-0.615-6.365-2.334-8.518-1.454
		c-5.924,2.42-9.772,0.245-13.457-3.933c-1.005-1.139-2.38-1.966-3.634-2.869c-15.216-10.956-32.752-16.451-50.55-21.232
		c-2.051-0.551-4.484,0.319-6.739,0.53c0.334,1.159,0.609,1.443,0.923,1.499c24.763,4.362,44.798,16.551,60.687,36
		c3.325,4.07,4.362,7.536,2.364,12.513c-2.514,6.262-2.91,6.796-9.268,4.592c0.593,1.206,0.933,2.309,1.592,3.169
		c2.986,3.898,3.056,7.948,1.104,12.314c-2.562,5.732-4.852,11.588-7.451,17.303c-12.203,26.842-24.939,53.399-42.298,77.425
		c-2.133,2.952-4.335,5.854-6.239,8.419c75.107-3.887,142.482,16.735,202.438,61.953c0-1.177-0.01-2.555,0.001-3.933
		c0.106-12.875-0.717-25.842,0.539-38.604c2.013-20.465,5.11-40.841,8.34-61.16C326.296,183.751,326.788,172.687,339.167,167.787z
		 M135.474,463.195c-1.551,6.837-3.03,13.198-4.433,19.575c-1.409,6.408,0.507,11.967,4.659,16.816
		c6.593,7.7,15.119,11.397,25.158,11.479c13.92,0.111,27.843,0.105,41.763-0.064c1.815-0.021,4.036-0.863,5.359-2.09
		c21.363-19.802,42.593-39.746,63.924-59.583c1.707-1.588,1.928-2.876,1.109-5.001c-3.281-8.507-6.481-17.05-9.434-25.675
		c-0.884-2.581-2.205-3.186-4.735-3.274c-9.778-0.344-19.632-0.311-29.298-1.608c-13.605-1.826-27.065-4.725-40.597-7.106
		c-0.901-0.158-2.527-0.116-2.736,0.334c-1.646,3.553-4.051,7.169-4.261,10.878c-0.338,5.979,0.782,12.046,1.361,18.067
		c0.814,8.471,1.624,16.919-0.423,25.353c-1.821,7.497-6.334,11.373-14.011,11.072c-4.064-0.16-8.208-0.838-12.11-1.983
		C149.774,468.331,142.935,465.748,135.474,463.195z M627.502,458.84c-38.31,0-76.379,0-114.654,0
		c-0.293,3.521-0.623,6.832-0.809,10.151c-0.056,1.003,0.22,2.047,0.472,3.039c1.049,4.143,4.407,6.966,8.512,7.22
		c3.983,0.246,7.87-2.277,9.199-6.289c0.553-1.665,0.556-3.521,0.753-5.294c0.319-2.884,1.931-4.176,4.736-3.607
		c7.606,1.541,9.406,3.98,8.69,11.48c-0.025,0.257-0.043,0.515-0.059,0.771c-0.388,6.323,3.284,11.101,8.813,11.47
		c5.762,0.384,9.955-3.996,10.167-10.621c0.135-4.186,1.158-5.242,5.23-5.396c7.193-0.271,7.896,0.39,8.096,7.616
		c0.008,0.257,0.021,0.515,0.04,0.771c0.369,5.076,4.43,8.812,9.495,8.738c5.075-0.074,8.996-3.911,9.114-9.072
		c0.052-2.313-0.125-4.636-0.258-6.95c-0.246-4.298,3.346-7.627,9.179-8.285c4.114-0.464,4.303,2.712,4.911,5.506
		c1.08,4.956,4.433,7.774,9.119,7.759c4.562-0.016,8.53-3.057,9.156-7.773C627.888,466.447,627.502,462.706,627.502,458.84z
		 M602.422,474.328c-0.224,12.706-3.726,19.175-11.893,20.935c-3.34,0.72-7.204,0.355-10.541-0.563
		c-5.254-1.446-8.138-5.833-10.19-10.938c-5.507,10.65-16.445,15.601-28.646,5.963c-2.687,8.554-1.589,11.524,5.88,15.809
		c0.775,0.444,1.604,0.814,2.438,1.14c18.888,7.369,38.167,7.997,57.489,2.399c12.461-3.61,18.502-12.943,17.47-24.991
		C614.146,486.479,608.705,484.172,602.422,474.328z M199.724,102.314c0.66,2.681,0.495,5.243,1.675,6.292
		c8.447,7.506,18.38,10.785,30.186,9.592c-3.417-7.572-5.702-15.178-4.782-23.053c1.096-9.393,3.074-18.689,4.849-27.994
		c0.985-5.161,2.613-10.209,3.425-15.391c0.585-3.733-1.501-5.035-4.523-2.835c-3.461,2.52-6.452,5.688-9.881,8.788
		c2.833,2.292,7.217,3.177,5.293,7.159c-2.546,5.27-6.664,1.11-10.417,0.739c-1.763,3.219-3.509,6.406-5.363,9.791
		c2.023,0.838,3.766,1.094,4.77,2.094c1.297,1.292,2.797,3.188,2.777,4.805c-0.031,2.449-2.415,3.139-4.646,2.757
		c-2.118-0.362-4.175-1.075-6.555-1.713c-0.595,1.333-1.189,2.585-1.719,3.863c-2.426,5.855-2.302,5.67,2.937,8.975
		c1.331,0.84,2.438,3.428,2.165,4.945c-0.193,1.071-2.819,2.08-4.492,2.388C204.046,103.768,202.473,102.95,199.724,102.314z
		 M323.813,119.106c-1.612-0.469-2.927-0.938-4.28-1.229c-2.982-0.642-5.371-2.077-4.472-5.449c0.819-3.071,3.443-3.394,6.273-2.583
		c1.19,0.341,2.455,0.418,4.169,0.694c0.086-1.792-0.056-3.331,0.268-4.765c0.999-4.418,0.737-7.675-5.035-8.106
		c-1.011-0.076-2.709-3.018-2.472-4.348c0.236-1.323,2.394-2.502,3.936-3.315c0.832-0.439,2.137,0.019,4.075,0.113
		c-0.813-4.083-1.322-7.733-2.336-11.236c-0.457-1.58-1.922-2.867-2.931-4.287c-1.287,1.298-3.12,2.371-3.764,3.934
		c-2.544,6.17-4.752,12.481-7.016,18.764c-5.182,14.38-11.839,27.708-25.417,36.19c-0.264,0.165-0.339,0.63-0.557,1.065
		c8.261,7.018,17.81,9.388,28.385,8.777c3.388-0.196,4.761-1.741,5.065-4.977c-1.226-0.489-2.254-1.012-3.344-1.311
		c-2.757-0.756-3.796-2.642-3.246-5.254c0.558-2.646,2.797-2.655,4.923-2.527c5.896,0.354,5.916,0.37,7.148-5.505
		C323.475,122.38,323.569,120.968,323.813,119.106z M108.72,70.161c0.738,1.683,1.125,2.927,1.782,4.006
		c8.993,14.773,21.104,26.842,33.644,38.517c0.606,0.565,2.451,0.774,2.945,0.315c1.945-1.807,4.117-3.701,5.186-6.03
		c1.167-2.541,2.298-4.162,5.185-4.954c4.171-1.146,4.67-3.831,1.65-6.885C145.354,81.216,128.574,73.363,108.72,70.161z
		 M412.603,163.085c-0.073-0.521-0.145-1.043-0.218-1.564c-3.952-1.511-7.85-3.187-11.866-4.502
		c-11.16-3.657-22.661-4.593-34.319-3.812c-4.197,0.281-4.884,1.322-4.278,5.442c0.694,4.716,1.425,9.428,2.001,14.159
		c0.322,2.65,1.08,3.939,4.205,3.163c8.589-2.135,17.345-3.646,25.86-6.032C400.333,168.161,406.407,165.405,412.603,163.085z"/>
	<path fill-rule="evenodd" clip-rule="evenodd" d="M404.844,346.733c0.838-10.774,7.49-17.515,18.874-17.318
		c7.007,0.121,13.993,1.651,20.982,2.596c2.152,0.292,4.273,0.981,6.428,1.08c24.069,1.105,48.193,1.492,72.201,3.367
		c21.503,1.68,43.076,3.921,63.619,11.353c3.25,1.176,6.462,2.596,9.457,4.311c10.872,6.221,13.972,17.756,8.066,29.692
		c-6.109,12.348-16.106,21.279-26.61,29.673c-3.906,3.122-8.271,5.671-12.428,8.478c-7.115,4.801-14.023,4.07-20.78-0.78
		c-3.031-2.175-6.075-4.333-9.11-6.502c-3.225-2.305-6.542-2.625-10.15-0.801c-9.062,4.579-18.032,9.376-27.309,13.474
		c-6.536,2.887-13.382,5.342-20.329,6.957c-8.729,2.031-16.897,0.107-23.468-6.518c-18.36-18.514-34.207-38.854-44.663-62.935
		C407.407,357.753,406.405,352.122,404.844,346.733z"/>
	<path fill-rule="evenodd" clip-rule="evenodd" d="M147.256,271.151c4.199,1.011,8.626,1.487,12.55,3.149
		c7.565,3.204,8.743,10.863,2.761,16.514c-6,5.667-13.605,7.916-21.548,8.166c-5.015,0.157-10.375-0.453-15.057-2.157
		c-8.463-3.079-9.559-11.525-2.621-17.311C130.174,273.814,138.382,271.979,147.256,271.151z"/>
	<path fill-rule="evenodd" clip-rule="evenodd" d="M255.617,303.508c7.483,0.742,14.471,5.755,20.095,12.46
		c3.135,3.738,5.698,8.316,7.254,12.94c2.67,7.938-3.456,14.613-11.578,12.574c-13.411-3.366-22.659-11.929-27.05-25.053
		C241.854,309.006,246.414,303.342,255.617,303.508z"/>
	<path fill-rule="evenodd" clip-rule="evenodd" d="M197.292,386.788c-15.613-0.541-30.329-3.901-42.58-14.324
		c-9.676-8.234-13.152-18.718-10.339-31.174c0.524-2.324,1.705-4.179,4.465-3.811c2.567,0.343,3.587,2.362,3.063,4.529
		c-3.737,15.455,5.042,24.896,16.844,30.504c13.655,6.488,27.941,8.41,42.75,4.673c2.213-0.559,4.399-1.486,6.387-2.614
		c3.165-1.794,5.341-4.353,5.235-8.349c-0.068-2.565,0.833-4.75,3.83-4.737c3.367,0.017,3.865,2.702,3.77,5.196
		c-0.272,7.113-4.107,12.018-10.257,15.183C213.209,385.594,205.394,386.829,197.292,386.788z"/>
	<path fill-rule="evenodd" clip-rule="evenodd" d="M195,191.685c1.861-4.19,2.926-7.984,5.107-10.961
		c1.238-1.689,4.573-3.143,6.47-2.68c1.892,0.461,4.119,3.266,4.525,5.366c1.022,5.289-0.648,10.356-4.714,13.938
		c-1.489,1.312-5.058,2.098-6.489,1.209C197.765,197.231,196.682,194.21,195,191.685z"/>
	<path fill-rule="evenodd" clip-rule="evenodd" d="M275.924,205.453c-1.823,3.71-3.095,7.857-5.603,11.025
		c-3.393,4.286-8.693,2.686-10.237-2.602c-1.392-4.766,0.949-12.54,5.114-15.227c1.568-1.011,4.168-1.434,5.934-0.907
		C274.429,198.727,274.904,201.914,275.924,205.453z"/>
</g>
</svg>
